<svg width="984" height="975" viewBox="0 0 984 975" fill="none" xmlns="http://www.w3.org/2000/svg">
<path d="M497.393 449.345C396.986 448.673 297.037 449.913 196.631 449.24C302.191 376.731 406.552 282.276 444.442 170.15C451.239 149.528 427.551 134.976 410.932 146.626C350.407 189.379 303.119 252.011 246.55 299.478C184.484 352.705 117.55 397.393 45.5295 436.021C15.4179 452.106 8.5832 494.565 38.5946 515.287C98.0524 556.057 153.144 603.934 202.849 656.331C249.728 705.36 284.942 766.474 333.949 812.57C362.745 840.05 423.472 823.522 411.945 776.961C387.979 680.015 303.719 594.643 214.226 526.285C310.267 534.063 405.851 539.93 501.651 543.319C641.691 547.459 799.681 567.521 937.344 534.637C981.319 524.132 976.287 467.531 934.61 458.893C795.5 429.874 638.996 449.878 497.393 449.345Z" fill="white"/>
</svg>
