<svg width="984" height="977" viewBox="0 0 984 977" fill="none" xmlns="http://www.w3.org/2000/svg">
<path d="M487.325 526.532C587.714 524.575 687.597 520.72 787.986 518.764C684.36 594.011 582.507 691.166 547.565 804.245C541.311 825.038 565.371 838.965 581.68 826.884C641.065 782.561 686.697 718.713 742.005 669.781C802.656 614.948 868.397 568.523 939.382 528.023C969.062 511.155 974.783 468.532 944.239 448.603C883.735 409.403 827.408 362.985 776.349 311.907C728.203 264.121 691.401 203.95 641.204 159.153C611.698 132.437 551.425 150.548 564.167 196.791C590.663 293.076 677.129 376.214 768.38 442.206C672.169 436.945 576.464 433.582 480.608 432.702C340.508 432.229 182.046 416.309 45.2917 452.786C1.60623 464.439 8.11827 520.888 50.0068 528.433C189.83 553.8 345.756 529.706 487.325 526.532Z" fill="white"/>
</svg>
